<?xml version="1.0" encoding="UTF-8"?>
<svg xmlns="http://www.w3.org/2000/svg" xmlns:xlink="http://www.w3.org/1999/xlink" width="42px" height="42px" viewBox="0 0 42 42" version="1.1">
<g id="surface1">
<path style=" stroke:none;fill-rule:nonzero;fill:rgb(0%,0%,0%);fill-opacity:1;" d="M 39.195312 12.417969 L 36.109375 12.417969 L 36.109375 8.492188 L 30.753906 8.492188 L 30.753906 12.417969 L 27.480469 12.417969 L 27.480469 26.8125 L 26.296875 26.8125 L 26.296875 25.628906 L 26.949219 25.628906 L 26.949219 9.800781 L 20.40625 9.800781 L 20.40625 6.304688 L 23.816406 5.316406 L 23.417969 3.941406 L 3.230469 9.800781 L 0.65625 9.800781 L 0.65625 25.628906 L 1.308594 25.628906 L 1.308594 26.8125 L 0 26.8125 L 0 32.171875 L 2.132812 32.171875 C 2.023438 32.574219 1.960938 32.992188 1.960938 33.417969 C 1.960938 35.976562 4.046875 38.058594 6.605469 38.058594 C 8.257812 38.058594 9.707031 37.191406 10.53125 35.890625 C 11.355469 37.191406 12.804688 38.058594 14.457031 38.058594 C 17.015625 38.058594 19.097656 35.976562 19.097656 33.417969 C 19.097656 32.992188 19.039062 32.574219 18.925781 32.171875 L 29.617188 32.171875 C 29.503906 32.574219 29.445312 32.992188 29.445312 33.417969 C 29.445312 35.976562 31.527344 38.058594 34.085938 38.058594 C 36.644531 38.058594 38.726562 35.976562 38.726562 33.417969 C 38.726562 32.992188 38.667969 32.574219 38.558594 32.171875 L 42 32.171875 L 42 21.578125 Z M 32.183594 9.925781 L 34.679688 9.925781 L 34.679688 12.417969 L 32.183594 12.417969 Z M 28.914062 13.851562 L 38.136719 13.851562 L 40.308594 20.925781 L 28.914062 20.925781 Z M 18.976562 6.71875 L 18.976562 9.800781 L 8.367188 9.800781 Z M 2.085938 11.234375 L 25.519531 11.234375 L 25.519531 24.195312 L 2.085938 24.195312 Z M 24.863281 25.628906 L 24.863281 26.8125 L 2.742188 26.8125 L 2.742188 25.628906 Z M 6.605469 36.628906 C 4.835938 36.628906 3.394531 35.1875 3.394531 33.417969 C 3.394531 32.839844 3.539062 32.300781 3.828125 31.8125 C 4.398438 30.824219 5.460938 30.207031 6.605469 30.207031 C 8.375 30.207031 9.816406 31.648438 9.816406 33.417969 C 9.816406 35.1875 8.375 36.628906 6.605469 36.628906 Z M 14.457031 36.628906 C 12.6875 36.628906 11.246094 35.1875 11.246094 33.417969 C 11.246094 31.648438 12.6875 30.207031 14.457031 30.207031 C 15.597656 30.207031 16.664062 30.824219 17.230469 31.8125 L 17.234375 31.820312 C 17.523438 32.300781 17.667969 32.839844 17.667969 33.417969 C 17.667969 35.1875 16.226562 36.628906 14.457031 36.628906 Z M 27.480469 30.738281 L 18.242188 30.738281 C 17.378906 29.519531 15.964844 28.777344 14.457031 28.777344 C 12.804688 28.777344 11.355469 29.644531 10.53125 30.945312 C 9.707031 29.644531 8.257812 28.777344 6.605469 28.777344 C 5.09375 28.777344 3.679688 29.519531 2.820312 30.738281 L 1.433594 30.738281 L 1.433594 28.246094 L 27.480469 28.246094 Z M 34.085938 36.628906 C 32.316406 36.628906 30.875 35.1875 30.875 33.417969 C 30.875 32.839844 31.023438 32.300781 31.3125 31.8125 C 31.878906 30.824219 32.945312 30.207031 34.085938 30.207031 C 35.230469 30.207031 36.292969 30.824219 36.863281 31.8125 L 36.867188 31.820312 C 37.152344 32.300781 37.296875 32.839844 37.296875 33.417969 C 37.296875 35.1875 35.855469 36.628906 34.085938 36.628906 Z M 40.566406 27.46875 L 38.726562 27.46875 L 38.726562 24.972656 L 40.566406 24.972656 Z M 40.566406 23.542969 L 37.296875 23.542969 L 37.296875 28.898438 L 40.566406 28.898438 L 40.566406 30.738281 L 37.871094 30.738281 C 37.007812 29.519531 35.597656 28.777344 34.085938 28.777344 C 32.574219 28.777344 31.160156 29.519531 30.300781 30.738281 L 28.914062 30.738281 L 28.914062 22.355469 L 40.566406 22.355469 Z M 40.566406 23.542969 "/>
<path style=" stroke:none;fill-rule:nonzero;fill:rgb(0%,0%,0%);fill-opacity:1;" d="M 34.085938 31.394531 C 32.96875 31.394531 32.0625 32.300781 32.0625 33.417969 C 32.0625 34.535156 32.96875 35.441406 34.085938 35.441406 C 35.203125 35.441406 36.109375 34.535156 36.109375 33.417969 C 36.109375 32.300781 35.203125 31.394531 34.085938 31.394531 Z M 34.085938 34.011719 C 33.757812 34.011719 33.492188 33.746094 33.492188 33.417969 C 33.492188 33.089844 33.757812 32.824219 34.085938 32.824219 C 34.414062 32.824219 34.679688 33.089844 34.679688 33.417969 C 34.679688 33.746094 34.414062 34.011719 34.085938 34.011719 Z M 34.085938 34.011719 "/>
<path style=" stroke:none;fill-rule:nonzero;fill:rgb(0%,0%,0%);fill-opacity:1;" d="M 14.457031 31.394531 C 13.339844 31.394531 12.433594 32.300781 12.433594 33.417969 C 12.433594 34.535156 13.339844 35.441406 14.457031 35.441406 C 15.574219 35.441406 16.480469 34.535156 16.480469 33.417969 C 16.480469 32.300781 15.574219 31.394531 14.457031 31.394531 Z M 14.457031 34.011719 C 14.128906 34.011719 13.863281 33.746094 13.863281 33.417969 C 13.863281 33.089844 14.128906 32.824219 14.457031 32.824219 C 14.785156 32.824219 15.050781 33.089844 15.050781 33.417969 C 15.050781 33.746094 14.785156 34.011719 14.457031 34.011719 Z M 14.457031 34.011719 "/>
<path style=" stroke:none;fill-rule:nonzero;fill:rgb(0%,0%,0%);fill-opacity:1;" d="M 6.605469 31.394531 C 5.488281 31.394531 4.582031 32.300781 4.582031 33.417969 C 4.582031 34.535156 5.488281 35.441406 6.605469 35.441406 C 7.722656 35.441406 8.628906 34.535156 8.628906 33.417969 C 8.628906 32.300781 7.722656 31.394531 6.605469 31.394531 Z M 6.605469 34.011719 C 6.277344 34.011719 6.011719 33.746094 6.011719 33.417969 C 6.011719 33.089844 6.277344 32.824219 6.605469 32.824219 C 6.933594 32.824219 7.199219 33.089844 7.199219 33.417969 C 7.199219 33.746094 6.933594 34.011719 6.605469 34.011719 Z M 6.605469 34.011719 "/>
<path style=" stroke:none;fill-rule:nonzero;fill:rgb(0%,0%,0%);fill-opacity:1;" d="M 30.160156 15.035156 L 31.46875 15.035156 L 31.46875 16.46875 L 30.160156 16.46875 Z M 30.160156 15.035156 "/>
<path style=" stroke:none;fill-rule:nonzero;fill:rgb(0%,0%,0%);fill-opacity:1;" d="M 30.160156 17 L 31.46875 17 L 31.46875 18.429688 L 30.160156 18.429688 Z M 30.160156 17 "/>
<path style=" stroke:none;fill-rule:nonzero;fill:rgb(0%,0%,0%);fill-opacity:1;" d="M 32.125 15.035156 L 33.433594 15.035156 L 33.433594 16.46875 L 32.125 16.46875 Z M 32.125 15.035156 "/>
<path style=" stroke:none;fill-rule:nonzero;fill:rgb(0%,0%,0%);fill-opacity:1;" d="M 30.816406 26.160156 L 33.433594 26.160156 L 33.433594 27.589844 L 30.816406 27.589844 Z M 30.816406 26.160156 "/>
<path style=" stroke:none;fill-rule:nonzero;fill:rgb(0%,0%,0%);fill-opacity:1;" d="M 32.777344 10.453125 L 34.085938 10.453125 L 34.085938 11.886719 L 32.777344 11.886719 Z M 32.777344 10.453125 "/>
<path style=" stroke:none;fill-rule:nonzero;fill:rgb(0%,0%,0%);fill-opacity:1;" d="M 20.347656 14.503906 L 20.347656 13.070312 L 3.332031 13.070312 L 3.332031 14.503906 L 5.234375 14.503906 L 5.234375 18.308594 L 3.332031 18.308594 L 3.332031 19.738281 L 20.34375 19.738281 L 20.34375 18.308594 L 18.445312 18.308594 L 18.445312 14.503906 Z M 6.667969 18.308594 L 6.667969 14.503906 L 9.160156 14.503906 L 9.160156 18.308594 Z M 13.085938 18.308594 L 10.59375 18.308594 L 10.59375 14.503906 L 13.085938 14.503906 Z M 17.011719 18.308594 L 14.519531 18.308594 L 14.519531 14.503906 L 17.011719 14.503906 Z M 17.011719 18.308594 "/>
<path style=" stroke:none;fill-rule:nonzero;fill:rgb(0%,0%,0%);fill-opacity:1;" d="M 3.332031 20.925781 L 4.640625 20.925781 L 4.640625 22.355469 L 3.332031 22.355469 Z M 3.332031 20.925781 "/>
<path style=" stroke:none;fill-rule:nonzero;fill:rgb(0%,0%,0%);fill-opacity:1;" d="M 5.949219 20.925781 L 7.257812 20.925781 L 7.257812 22.355469 L 5.949219 22.355469 Z M 5.949219 20.925781 "/>
<path style=" stroke:none;fill-rule:nonzero;fill:rgb(0%,0%,0%);fill-opacity:1;" d="M 8.566406 20.925781 L 24.269531 20.925781 L 24.269531 22.355469 L 8.566406 22.355469 Z M 8.566406 20.925781 "/>
</g>
</svg>
