<?xml version="1.0" encoding="UTF-8"?>
<svg xmlns="http://www.w3.org/2000/svg" xmlns:xlink="http://www.w3.org/1999/xlink" width="42px" height="42px" viewBox="0 0 42 42" version="1.1">
<g id="surface1">
<path style=" stroke:none;fill-rule:nonzero;fill:rgb(0%,0%,0%);fill-opacity:1;" d="M 13.125 23.625 L 23.625 23.625 L 23.625 26.25 L 13.125 26.25 Z M 13.125 23.625 "/>
<path style=" stroke:none;fill-rule:nonzero;fill:rgb(0%,0%,0%);fill-opacity:1;" d="M 13.125 17.0625 L 28.875 17.0625 L 28.875 19.6875 L 13.125 19.6875 Z M 13.125 17.0625 "/>
<path style=" stroke:none;fill-rule:nonzero;fill:rgb(0%,0%,0%);fill-opacity:1;" d="M 13.125 30.1875 L 19.6875 30.1875 L 19.6875 32.8125 L 13.125 32.8125 Z M 13.125 30.1875 "/>
<path style=" stroke:none;fill-rule:nonzero;fill:rgb(0%,0%,0%);fill-opacity:1;" d="M 32.8125 6.5625 L 28.875 6.5625 L 28.875 5.25 C 28.875 3.800781 27.699219 2.625 26.25 2.625 L 15.75 2.625 C 14.300781 2.625 13.125 3.800781 13.125 5.25 L 13.125 6.5625 L 9.1875 6.5625 C 7.738281 6.5625 6.5625 7.738281 6.5625 9.1875 L 6.5625 36.75 C 6.5625 38.199219 7.738281 39.375 9.1875 39.375 L 32.8125 39.375 C 34.261719 39.375 35.4375 38.199219 35.4375 36.75 L 35.4375 9.1875 C 35.4375 7.738281 34.261719 6.5625 32.8125 6.5625 Z M 15.75 5.25 L 26.25 5.25 L 26.25 10.5 L 15.75 10.5 Z M 32.8125 36.75 L 9.1875 36.75 L 9.1875 9.1875 L 13.125 9.1875 L 13.125 13.125 L 28.875 13.125 L 28.875 9.1875 L 32.8125 9.1875 Z M 32.8125 36.75 "/>
</g>
</svg>
