<?xml version="1.0" encoding="UTF-8"?>
<svg xmlns="http://www.w3.org/2000/svg" xmlns:xlink="http://www.w3.org/1999/xlink" width="42px" height="42px" viewBox="0 0 42 42" version="1.1">
<g id="surface1">
<path style=" stroke:none;fill-rule:nonzero;fill:rgb(0%,0%,0%);fill-opacity:1;" d="M 29.417969 9.820312 C 29.054688 9.820312 28.761719 10.113281 28.761719 10.476562 L 28.761719 11.882812 C 28.761719 12.242188 29.054688 12.539062 29.417969 12.539062 C 29.78125 12.539062 30.074219 12.246094 30.074219 11.882812 L 30.074219 10.476562 C 30.074219 10.113281 29.78125 9.820312 29.417969 9.820312 Z M 29.417969 9.820312 "/>
<path style=" stroke:none;fill-rule:nonzero;fill:rgb(0%,0%,0%);fill-opacity:1;" d="M 37.132812 0 L 34.328125 0 C 33.578125 0 32.96875 0.609375 32.96875 1.359375 L 32.96875 3.214844 C 32.546875 2.957031 32.050781 2.804688 31.523438 2.804688 C 30.679688 2.804688 29.925781 3.183594 29.417969 3.78125 C 28.910156 3.183594 28.15625 2.804688 27.3125 2.804688 C 26.472656 2.804688 25.714844 3.183594 25.207031 3.78125 C 24.703125 3.183594 23.945312 2.804688 23.105469 2.804688 C 22.261719 2.804688 21.507812 3.183594 21 3.78125 C 20.492188 3.183594 19.738281 2.804688 18.894531 2.804688 C 18.054688 2.804688 17.296875 3.183594 16.792969 3.78125 C 16.285156 3.183594 15.527344 2.804688 14.6875 2.804688 C 13.84375 2.804688 13.089844 3.183594 12.582031 3.78125 C 12.074219 3.183594 11.320312 2.804688 10.476562 2.804688 C 9.949219 2.804688 9.453125 2.957031 9.03125 3.214844 L 9.03125 1.359375 C 9.03125 0.609375 8.421875 0 7.671875 0 L 4.867188 0 C 4.117188 0 3.507812 0.609375 3.507812 1.359375 L 3.507812 28.015625 C 3.507812 28.765625 4.117188 29.375 4.867188 29.375 L 7.671875 29.375 C 8.421875 29.375 9.03125 28.765625 9.03125 28.015625 L 9.03125 26.15625 C 9.453125 26.417969 9.949219 26.566406 10.476562 26.566406 C 11.320312 26.566406 12.074219 26.1875 12.582031 25.59375 C 13.089844 26.1875 13.84375 26.566406 14.6875 26.566406 C 15.21875 26.566406 15.710938 26.417969 16.132812 26.15625 L 16.132812 29.691406 C 16.035156 29.753906 15.945312 29.832031 15.867188 29.921875 C 15.609375 30.214844 15.488281 30.601562 15.535156 30.988281 L 16.839844 41.425781 C 16.882812 41.753906 17.160156 42 17.492188 42 L 20.296875 42 C 20.628906 42 20.910156 41.753906 20.949219 41.425781 L 22.253906 30.988281 C 22.304688 30.601562 22.183594 30.214844 21.925781 29.921875 C 21.847656 29.832031 21.753906 29.753906 21.65625 29.691406 L 21.65625 26.160156 C 22.089844 26.425781 22.585938 26.566406 23.105469 26.566406 C 23.945312 26.566406 24.703125 26.1875 25.207031 25.59375 C 25.714844 26.1875 26.472656 26.566406 27.3125 26.566406 C 28.15625 26.566406 28.910156 26.1875 29.417969 25.59375 C 29.925781 26.1875 30.679688 26.566406 31.523438 26.566406 C 32.050781 26.566406 32.546875 26.417969 32.96875 26.15625 L 32.96875 28.015625 C 32.96875 28.765625 33.578125 29.375 34.328125 29.375 L 37.132812 29.375 C 37.882812 29.375 38.492188 28.765625 38.492188 28.015625 L 38.492188 1.359375 C 38.492188 0.609375 37.882812 0 37.132812 0 Z M 7.714844 28.015625 C 7.714844 28.039062 7.695312 28.058594 7.671875 28.058594 L 4.867188 28.058594 C 4.84375 28.058594 4.824219 28.039062 4.824219 28.015625 L 4.824219 1.359375 C 4.824219 1.335938 4.84375 1.316406 4.867188 1.316406 L 7.671875 1.316406 C 7.695312 1.316406 7.714844 1.335938 7.714844 1.359375 Z M 16.132812 23.804688 C 16.132812 24.605469 15.484375 25.253906 14.6875 25.253906 C 13.890625 25.253906 13.238281 24.605469 13.238281 23.804688 L 13.238281 21.703125 C 13.238281 21.339844 12.945312 21.042969 12.582031 21.042969 C 12.21875 21.042969 11.925781 21.339844 11.925781 21.703125 L 11.925781 23.804688 C 11.925781 24.605469 11.277344 25.253906 10.476562 25.253906 C 9.679688 25.253906 9.03125 24.605469 9.03125 23.804688 L 9.03125 5.566406 C 9.03125 4.769531 9.679688 4.121094 10.476562 4.121094 C 11.277344 4.121094 11.925781 4.769531 11.925781 5.566406 L 11.925781 18.894531 C 11.925781 19.257812 12.21875 19.554688 12.582031 19.554688 C 12.945312 19.554688 13.238281 19.257812 13.238281 18.894531 L 13.238281 5.566406 C 13.238281 4.769531 13.890625 4.121094 14.6875 4.121094 C 15.484375 4.121094 16.132812 4.769531 16.132812 5.566406 Z M 17.449219 23.804688 L 17.449219 5.566406 C 17.449219 4.769531 18.097656 4.121094 18.894531 4.121094 C 19.695312 4.121094 20.34375 4.769531 20.34375 5.566406 L 20.34375 29.460938 L 17.449219 29.460938 Z M 19.71875 40.683594 L 18.074219 40.683594 L 17.183594 33.582031 L 20.605469 33.582031 Z M 20.949219 30.824219 L 20.769531 32.265625 L 17.019531 32.265625 L 16.839844 30.824219 C 16.839844 30.820312 16.839844 30.804688 16.851562 30.792969 C 16.863281 30.777344 16.878906 30.777344 16.882812 30.777344 L 20.90625 30.777344 C 20.914062 30.777344 20.925781 30.777344 20.941406 30.792969 C 20.953125 30.804688 20.949219 30.820312 20.949219 30.824219 Z M 32.96875 23.804688 C 32.96875 24.605469 32.320312 25.253906 31.523438 25.253906 C 30.722656 25.253906 30.074219 24.605469 30.074219 23.804688 L 30.074219 14.6875 C 30.074219 14.324219 29.78125 14.03125 29.417969 14.03125 C 29.054688 14.03125 28.761719 14.324219 28.761719 14.6875 L 28.761719 23.804688 C 28.761719 24.605469 28.109375 25.253906 27.3125 25.253906 C 26.515625 25.253906 25.867188 24.605469 25.867188 23.804688 L 25.867188 10.476562 C 25.867188 10.113281 25.570312 9.820312 25.207031 9.820312 C 24.84375 9.820312 24.550781 10.113281 24.550781 10.476562 L 24.550781 23.804688 C 24.550781 24.605469 23.902344 25.253906 23.105469 25.253906 C 22.304688 25.253906 21.65625 24.605469 21.65625 23.804688 L 21.65625 5.566406 C 21.65625 4.769531 22.304688 4.121094 23.105469 4.121094 C 23.902344 4.121094 24.550781 4.769531 24.550781 5.566406 L 24.550781 7.671875 C 24.550781 8.035156 24.84375 8.328125 25.207031 8.328125 C 25.570312 8.328125 25.867188 8.035156 25.867188 7.671875 L 25.867188 5.566406 C 25.867188 4.769531 26.515625 4.121094 27.3125 4.121094 C 28.109375 4.121094 28.761719 4.769531 28.761719 5.566406 L 28.761719 7.671875 C 28.761719 8.035156 29.054688 8.328125 29.417969 8.328125 C 29.78125 8.328125 30.074219 8.035156 30.074219 7.671875 L 30.074219 5.566406 C 30.074219 4.769531 30.722656 4.121094 31.523438 4.121094 C 32.320312 4.121094 32.96875 4.769531 32.96875 5.566406 Z M 37.175781 28.015625 C 37.175781 28.039062 37.15625 28.058594 37.132812 28.058594 L 34.328125 28.058594 C 34.304688 28.058594 34.285156 28.039062 34.285156 28.015625 L 34.285156 1.359375 C 34.285156 1.335938 34.304688 1.316406 34.328125 1.316406 L 37.132812 1.316406 C 37.15625 1.316406 37.175781 1.335938 37.175781 1.359375 Z M 37.175781 28.015625 "/>
</g>
</svg>
