<?xml version="1.0" encoding="UTF-8"?>
<svg xmlns="http://www.w3.org/2000/svg" xmlns:xlink="http://www.w3.org/1999/xlink" width="42px" height="42px" viewBox="0 0 42 42" version="1.1">
<g id="surface1">
<path style=" stroke:none;fill-rule:evenodd;fill:rgb(3.529412%,14.117647%,29.411765%);fill-opacity:1;" d="M 28 24.5 C 32.832031 24.5 36.75 28.417969 36.75 33.25 L 36.75 36.75 C 36.75 37.714844 35.964844 38.5 35 38.5 C 34.035156 38.5 33.25 37.714844 33.25 36.75 L 33.25 33.25 C 33.25 30.351562 30.898438 28 28 28 L 14 28 C 11.101562 28 8.75 30.351562 8.75 33.25 L 8.75 36.75 C 8.75 37.714844 7.964844 38.5 7 38.5 C 6.035156 38.5 5.25 37.714844 5.25 36.75 L 5.25 33.25 C 5.25 28.417969 9.167969 24.5 14 24.5 Z M 37.476562 15.890625 C 38.160156 15.207031 39.265625 15.207031 39.949219 15.890625 C 40.582031 16.523438 40.628906 17.515625 40.09375 18.203125 L 39.949219 18.367188 L 35 23.316406 C 34.367188 23.949219 33.375 23.996094 32.691406 23.460938 L 32.523438 23.316406 L 30.050781 20.84375 C 29.367188 20.160156 29.367188 19.050781 30.050781 18.367188 C 30.679688 17.734375 31.671875 17.6875 32.359375 18.222656 L 32.523438 18.367188 L 33.761719 19.605469 Z M 21 3.5 C 25.832031 3.5 29.75 7.417969 29.75 12.25 C 29.75 17.082031 25.832031 21 21 21 C 16.167969 21 12.25 17.082031 12.25 12.25 C 12.25 7.417969 16.167969 3.5 21 3.5 Z M 21 7 C 18.101562 7 15.75 9.351562 15.75 12.25 C 15.75 15.148438 18.101562 17.5 21 17.5 C 23.898438 17.5 26.25 15.148438 26.25 12.25 C 26.25 9.351562 23.898438 7 21 7 Z M 21 7 "/>
</g>
</svg>
