<?xml version="1.0" encoding="UTF-8"?>
<svg xmlns="http://www.w3.org/2000/svg" xmlns:xlink="http://www.w3.org/1999/xlink" width="42px" height="42px" viewBox="0 0 42 42" version="1.1">
<g id="surface1">
<path style=" stroke:none;fill-rule:nonzero;fill:rgb(6.666667%,9.803922%,9.411765%);fill-opacity:1;" d="M 22.3125 7.875 L 19.6875 7.875 L 19.6875 5.25 L 22.3125 5.25 Z M 33.992188 11.175781 L 32.136719 9.320312 L 30.28125 11.175781 L 32.136719 13.03125 Z M 11.71875 11.175781 L 9.863281 9.320312 L 8.007812 11.175781 L 9.863281 13.03125 Z M 34.125 34.125 L 38.0625 34.125 L 38.0625 36.75 L 3.9375 36.75 L 3.9375 34.125 L 7.875 34.125 L 7.875 22.3125 C 7.875 15.0625 13.855469 9.1875 21 9.1875 C 28.144531 9.1875 34.125 15.0625 34.125 22.3125 Z M 31.5 22.3125 C 31.5 16.523438 26.789062 11.8125 21 11.8125 C 15.210938 11.8125 10.5 16.523438 10.5 22.3125 L 10.5 34.125 L 31.5 34.125 Z M 6.5625 21 L 3.9375 21 L 3.9375 23.625 L 6.5625 23.625 Z M 35.4375 21 L 35.4375 23.625 L 38.0625 23.625 L 38.0625 21 Z M 13.125 22.3125 L 13.125 31.5 L 15.75 31.5 L 15.75 22.3125 C 15.75 19.414062 18.101562 17.0625 21 17.0625 L 21 14.4375 C 16.648438 14.4375 13.125 17.960938 13.125 22.3125 Z M 13.125 22.3125 "/>
</g>
</svg>
