<?xml version="1.0" encoding="UTF-8"?>
<svg xmlns="http://www.w3.org/2000/svg" xmlns:xlink="http://www.w3.org/1999/xlink" width="42px" height="42px" viewBox="0 0 42 42" version="1.1">
<g id="surface1">
<path style=" stroke:none;fill-rule:nonzero;fill:rgb(0%,0%,0%);fill-opacity:1;" d="M 36.628906 36.820312 C 36.628906 35.136719 36.046875 33.734375 35.1875 32.625 C 34.328125 31.515625 33.207031 30.691406 32.105469 30.070312 C 31.316406 29.632812 30.539062 29.300781 29.855469 29.050781 L 35.816406 29.050781 L 35.453125 28.230469 C 35.453125 28.230469 35.441406 28.203125 35.414062 28.144531 C 35.390625 28.089844 35.351562 28.003906 35.304688 27.890625 C 35.210938 27.667969 35.074219 27.339844 34.910156 26.925781 C 34.578125 26.09375 34.128906 24.914062 33.667969 23.527344 C 32.777344 20.875 31.835938 17.457031 31.523438 14.277344 L 32.027344 14.277344 C 32.457031 14.277344 32.851562 14.023438 33.003906 13.621094 C 33.003906 13.617188 33.003906 13.617188 33.011719 13.609375 C 33.046875 13.5 33.070312 13.375 33.070312 13.265625 C 33.070312 12.976562 32.945312 12.691406 32.714844 12.496094 L 30.808594 10.890625 C 30.679688 6.460938 27.441406 2.792969 23.140625 1.863281 L 23.140625 1.648438 C 23.140625 0.742188 22.382812 0.00390625 21.445312 0 L 20.554688 0 C 19.617188 0.00390625 18.859375 0.742188 18.859375 1.648438 L 18.859375 1.863281 C 14.558594 2.792969 11.320312 6.460938 11.191406 10.890625 L 9.285156 12.496094 C 9.054688 12.691406 8.929688 12.976562 8.929688 13.265625 C 8.929688 13.375 8.953125 13.5 8.988281 13.609375 C 8.996094 13.617188 8.996094 13.617188 8.996094 13.621094 C 9.148438 14.019531 9.542969 14.277344 9.972656 14.277344 L 10.476562 14.277344 C 10.164062 17.457031 9.222656 20.875 8.332031 23.527344 C 7.871094 24.914062 7.421875 26.09375 7.089844 26.925781 C 6.925781 27.339844 6.789062 27.667969 6.695312 27.890625 C 6.648438 28.003906 6.609375 28.089844 6.585938 28.144531 C 6.558594 28.203125 6.546875 28.230469 6.546875 28.230469 L 6.183594 29.050781 L 12.144531 29.050781 C 11.460938 29.300781 10.683594 29.632812 9.894531 30.070312 C 8.792969 30.691406 7.671875 31.515625 6.8125 32.625 C 5.953125 33.734375 5.371094 35.136719 5.371094 36.820312 C 5.371094 37.253906 5.414062 37.703125 5.492188 38.171875 L 5.488281 38.171875 C 5.488281 38.183594 5.492188 38.191406 5.496094 38.203125 C 5.496094 38.210938 5.496094 38.214844 5.5 38.222656 C 5.527344 38.398438 5.601562 38.539062 5.675781 38.660156 C 5.851562 38.90625 6.078125 39.09375 6.367188 39.28125 C 6.867188 39.601562 7.5625 39.921875 8.453125 40.230469 C 11.117188 41.152344 15.53125 42 21 42 C 26.46875 42 30.882812 41.152344 33.546875 40.230469 C 34.4375 39.921875 35.132812 39.601562 35.632812 39.28125 C 35.921875 39.09375 36.148438 38.90625 36.324219 38.660156 C 36.402344 38.539062 36.472656 38.398438 36.5 38.222656 C 36.503906 38.214844 36.503906 38.210938 36.503906 38.203125 C 36.507812 38.191406 36.511719 38.183594 36.511719 38.171875 L 36.507812 38.171875 C 36.589844 37.703125 36.628906 37.253906 36.628906 36.820312 Z M 6.519531 38.089844 L 6.515625 38.089844 L 6.125 38.121094 L 6.097656 38.121094 L 6.609375 38.039062 Z M 6.613281 38.039062 L 6.609375 38.039062 L 6.617188 38.035156 Z M 9.925781 39.453125 C 9.765625 39.40625 9.601562 39.363281 9.449219 39.316406 C 8.640625 39.0625 7.980469 38.804688 7.503906 38.566406 C 7.175781 38.398438 6.933594 38.246094 6.796875 38.128906 C 6.738281 38.082031 6.699219 38.039062 6.6875 38.019531 C 6.613281 37.597656 6.578125 37.199219 6.578125 36.820312 C 6.582031 35.398438 7.054688 34.273438 7.777344 33.332031 C 8.363281 32.570312 9.125 31.945312 9.925781 31.4375 Z M 32.519531 23.890625 C 33.101562 25.628906 33.65625 27.042969 33.996094 27.878906 L 30.324219 27.878906 C 29.078125 25.664062 28.367188 22.882812 27.988281 20.398438 C 27.589844 17.800781 27.539062 15.535156 27.539062 14.574219 C 27.539062 14.449219 27.542969 14.355469 27.542969 14.277344 L 30.3125 14.277344 C 30.628906 17.632812 31.605469 21.15625 32.519531 23.890625 Z M 32.027344 13.269531 L 32.027344 13.316406 L 31.984375 13.316406 Z M 9.972656 13.316406 L 9.972656 13.269531 L 10.015625 13.316406 Z M 10.152344 13.316406 L 12.390625 11.429688 L 12.390625 11.164062 C 12.390625 11.054688 12.390625 10.949219 12.402344 10.847656 L 16.191406 10.847656 L 16.191406 9.171875 L 12.640625 9.171875 C 13.421875 6.058594 16.007812 3.632812 19.261719 2.980469 L 19.261719 4.871094 L 20.03125 4.871094 L 20.03125 2.847656 L 20.066406 2.84375 L 20.066406 1.648438 C 20.066406 1.386719 20.285156 1.179688 20.554688 1.171875 L 21.445312 1.171875 C 21.714844 1.179688 21.933594 1.386719 21.933594 1.648438 L 21.933594 2.84375 L 21.96875 2.847656 L 21.96875 4.871094 L 22.738281 4.871094 L 22.738281 2.980469 C 25.992188 3.632812 28.578125 6.058594 29.359375 9.171875 L 25.808594 9.171875 L 25.808594 10.847656 L 29.597656 10.847656 C 29.609375 10.949219 29.609375 11.054688 29.609375 11.164062 L 29.609375 11.429688 L 31.847656 13.316406 Z M 11.675781 27.878906 L 8.003906 27.878906 C 8.34375 27.042969 8.898438 25.628906 9.480469 23.890625 C 10.394531 21.15625 11.371094 17.632812 11.691406 14.277344 L 14.457031 14.277344 C 14.457031 14.355469 14.460938 14.449219 14.460938 14.570312 C 14.460938 15.535156 14.410156 17.800781 14.011719 20.394531 C 13.632812 22.882812 12.921875 25.664062 11.675781 27.878906 Z M 12.5625 28.757812 C 13.097656 27.859375 13.539062 26.882812 13.902344 25.875 L 13.828125 28.53125 C 13.5 28.613281 13.019531 28.746094 12.453125 28.941406 Z M 20.402344 40.820312 C 17.441406 40.785156 14.820312 40.496094 12.667969 40.09375 L 12.667969 38.0625 L 20.402344 38.0625 Z M 20.402344 34.953125 L 12.667969 34.953125 L 12.667969 30.113281 C 13.101562 29.957031 13.496094 29.835938 13.804688 29.75 C 14.035156 29.6875 14.222656 29.640625 14.347656 29.613281 C 14.410156 29.597656 14.457031 29.589844 14.492188 29.582031 L 14.527344 29.574219 L 14.535156 29.574219 L 15.007812 29.484375 L 15.097656 26.382812 L 18.148438 26.382812 L 18.132812 26.367188 L 20.402344 26.367188 Z M 17.242188 25.40625 C 16.800781 24.933594 16.347656 24.523438 15.957031 23.980469 C 15.570312 23.433594 15.230469 22.75 15.035156 21.695312 L 15.011719 21.699219 C 15.085938 21.316406 15.148438 20.9375 15.207031 20.570312 C 15.617188 17.890625 15.667969 15.574219 15.667969 14.570312 C 15.667969 14.453125 15.664062 14.359375 15.664062 14.277344 L 26.335938 14.277344 C 26.335938 14.359375 26.332031 14.453125 26.332031 14.570312 C 26.335938 15.574219 26.382812 17.890625 26.792969 20.570312 C 26.851562 20.9375 26.914062 21.316406 26.988281 21.699219 L 26.964844 21.695312 C 26.773438 22.75 26.429688 23.433594 26.042969 23.980469 C 25.652344 24.523438 25.199219 24.933594 24.757812 25.40625 Z M 29.402344 40.082031 C 27.238281 40.492188 24.59375 40.785156 21.597656 40.820312 L 21.597656 38.0625 L 29.402344 38.0625 Z M 29.402344 34.953125 L 21.597656 34.953125 L 21.597656 26.367188 L 23.867188 26.367188 L 23.851562 26.382812 L 26.90625 26.382812 L 26.992188 29.484375 L 27.464844 29.574219 L 27.476562 29.574219 L 27.507812 29.582031 C 27.542969 29.589844 27.589844 29.597656 27.652344 29.613281 C 27.78125 29.640625 27.964844 29.6875 28.195312 29.75 C 28.523438 29.839844 28.9375 29.96875 29.402344 30.136719 Z M 28.171875 28.53125 L 28.097656 25.875 C 28.460938 26.882812 28.902344 27.859375 29.4375 28.757812 L 29.546875 28.941406 C 28.980469 28.746094 28.5 28.613281 28.171875 28.53125 Z M 35.203125 38.128906 C 35.066406 38.246094 34.828125 38.398438 34.496094 38.566406 C 34.019531 38.804688 33.363281 39.0625 32.550781 39.316406 C 32.421875 39.355469 32.28125 39.394531 32.144531 39.433594 L 32.144531 31.480469 C 32.921875 31.980469 33.65625 32.59375 34.222656 33.332031 C 34.949219 34.273438 35.417969 35.398438 35.421875 36.820312 C 35.421875 37.199219 35.386719 37.597656 35.3125 38.019531 C 35.300781 38.039062 35.261719 38.082031 35.203125 38.128906 Z M 35.386719 38.039062 L 35.382812 38.035156 L 35.390625 38.039062 Z M 35.875 38.121094 L 35.484375 38.089844 L 35.480469 38.089844 L 35.390625 38.039062 L 35.902344 38.121094 Z M 35.875 38.121094 "/>
<path style=" stroke:none;fill-rule:nonzero;fill:rgb(0%,0%,0%);fill-opacity:1;" d="M 21.417969 9.785156 C 21.519531 9.6875 21.585938 9.546875 21.585938 9.386719 C 21.585938 9.226562 21.519531 9.085938 21.417969 8.980469 C 21.308594 8.878906 21.164062 8.816406 21 8.816406 C 20.835938 8.816406 20.691406 8.878906 20.582031 8.980469 C 20.480469 9.085938 20.414062 9.226562 20.414062 9.386719 C 20.414062 9.546875 20.480469 9.6875 20.582031 9.785156 C 20.691406 9.894531 20.835938 9.953125 21 9.953125 C 21.164062 9.953125 21.308594 9.894531 21.417969 9.785156 Z M 21.417969 9.785156 "/>
<path style=" stroke:none;fill-rule:nonzero;fill:rgb(0%,0%,0%);fill-opacity:1;" d="M 22.320312 12.304688 C 23.128906 12.304688 23.875 11.882812 24.28125 11.199219 C 24.6875 10.523438 24.6875 9.679688 24.28125 8.996094 L 22.964844 6.777344 C 22.558594 6.101562 21.8125 5.679688 21 5.679688 C 20.1875 5.679688 19.441406 6.101562 19.035156 6.777344 L 17.71875 8.996094 C 17.3125 9.679688 17.3125 10.523438 17.71875 11.199219 C 18.125 11.882812 18.871094 12.304688 19.679688 12.304688 Z M 19.207031 9.386719 C 19.207031 8.90625 19.410156 8.464844 19.726562 8.15625 C 20.050781 7.839844 20.507812 7.644531 21 7.644531 C 21.492188 7.644531 21.949219 7.839844 22.273438 8.15625 C 22.589844 8.464844 22.792969 8.90625 22.792969 9.386719 C 22.792969 9.867188 22.589844 10.304688 22.273438 10.617188 C 21.949219 10.933594 21.492188 11.128906 21 11.128906 C 20.507812 11.128906 20.050781 10.933594 19.726562 10.617188 C 19.410156 10.304688 19.207031 9.867188 19.207031 9.386719 Z M 19.207031 9.386719 "/>
</g>
</svg>
