<?xml version="1.0" encoding="UTF-8"?>
<svg xmlns="http://www.w3.org/2000/svg" xmlns:xlink="http://www.w3.org/1999/xlink" width="42px" height="42px" viewBox="0 0 42 42" version="1.1">
<g id="surface1">
<path style="fill:none;stroke-width:2;stroke-linecap:round;stroke-linejoin:round;stroke:rgb(0%,0%,0%);stroke-opacity:1;stroke-miterlimit:4;" d="M 5 9.776786 L 5 16.200893 C 5 17.879464 5 18.720982 5.325893 19.361607 C 5.613839 19.926339 6.073661 20.386161 6.638393 20.674107 C 7.279018 21 8.120536 21 9.799107 21 L 14.200893 21 C 15.879464 21 16.720982 21 17.361607 20.674107 C 17.926339 20.386161 18.386161 19.926339 18.674107 19.361607 C 19 18.720982 19 17.879464 19 16.200893 L 19 5 M 21 12 L 15.566964 5.964286 C 14.330357 4.591518 13.714286 3.904018 12.986607 3.651786 C 12.345982 3.428571 11.651786 3.428571 11.011161 3.651786 C 10.283482 3.904018 9.667411 4.591518 8.430804 5.964286 L 3 12 M 14 21 L 14 15 L 10 15 L 10 21 " transform="matrix(1.75,0,0,1.75,0,0)"/>
</g>
</svg>
