<?xml version="1.0" encoding="UTF-8"?>
<svg xmlns="http://www.w3.org/2000/svg" xmlns:xlink="http://www.w3.org/1999/xlink" width="42px" height="42px" viewBox="0 0 42 42" version="1.1">
<g id="surface1">
<path style="fill:none;stroke-width:2;stroke-linecap:round;stroke-linejoin:round;stroke:rgb(0%,0%,0%);stroke-opacity:1;stroke-miterlimit:4;" d="M 12 15 L 15 12 M 15 12 L 12 9 M 15 12 L 4 12 M 9 7.247768 L 9 7.200893 C 9 6.080357 9 5.520089 9.21875 5.091518 C 9.410714 4.716518 9.716518 4.410714 10.091518 4.21875 C 10.520089 4 11.080357 4 12.200893 4 L 16.799107 4 C 17.919643 4 18.479911 4 18.908482 4.21875 C 19.283482 4.410714 19.591518 4.716518 19.78125 5.091518 C 20 5.520089 20 6.078125 20 7.196429 L 20 16.803571 C 20 17.921875 20 18.479911 19.78125 18.908482 C 19.591518 19.283482 19.283482 19.591518 18.908482 19.78125 C 18.479911 20 17.921875 20 16.803571 20 L 12.196429 20 C 11.078125 20 10.520089 20 10.091518 19.78125 C 9.716518 19.591518 9.410714 19.283482 9.21875 18.908482 C 9 18.479911 9 17.919643 9 16.799107 L 9 16.75 " transform="matrix(1.75,0,0,1.75,0,0)"/>
</g>
</svg>
