<?xml version="1.0" encoding="UTF-8"?>
<svg xmlns="http://www.w3.org/2000/svg" xmlns:xlink="http://www.w3.org/1999/xlink" width="42px" height="42px" viewBox="0 0 42 42" version="1.1">
<g id="surface1">
<path style=" stroke:none;fill-rule:evenodd;fill:rgb(0%,0%,0%);fill-opacity:1;" d="M 35.4375 3.9375 C 35.4375 3.214844 34.847656 2.625 34.125 2.625 L 7.875 2.625 C 7.152344 2.625 6.5625 3.214844 6.5625 3.9375 L 6.5625 38.0625 C 6.5625 38.785156 7.152344 39.375 7.875 39.375 L 34.125 39.375 C 34.847656 39.375 35.4375 38.785156 35.4375 38.0625 Z M 32.8125 5.25 L 32.8125 36.75 C 32.8125 36.75 9.1875 36.75 9.1875 36.75 C 9.1875 36.75 9.1875 5.25 9.1875 5.25 Z M 21 18.375 C 16.65625 18.375 13.125 21.90625 13.125 26.25 C 13.125 30.59375 16.65625 34.125 21 34.125 C 25.34375 34.125 28.875 30.59375 28.875 26.25 C 28.875 21.90625 25.34375 18.375 21 18.375 Z M 19.6875 21.164062 C 17.425781 21.75 15.75 23.804688 15.75 26.25 C 15.75 29.148438 18.101562 31.5 21 31.5 C 23.445312 31.5 25.5 29.824219 26.085938 27.5625 L 21 27.5625 C 20.277344 27.5625 19.6875 26.972656 19.6875 26.25 Z M 17.0625 15.75 L 24.9375 15.75 C 25.660156 15.75 26.25 15.160156 26.25 14.4375 C 26.25 13.714844 25.660156 13.125 24.9375 13.125 L 17.0625 13.125 C 16.339844 13.125 15.75 13.714844 15.75 14.4375 C 15.75 15.160156 16.339844 15.75 17.0625 15.75 Z M 14.4375 10.5 L 27.5625 10.5 C 28.285156 10.5 28.875 9.910156 28.875 9.1875 C 28.875 8.464844 28.285156 7.875 27.5625 7.875 L 14.4375 7.875 C 13.714844 7.875 13.125 8.464844 13.125 9.1875 C 13.125 9.910156 13.714844 10.5 14.4375 10.5 Z M 14.4375 10.5 "/>
</g>
</svg>
